# xmcd
#
# Track frame offsets:
#	150
#	17304
#	37749
#	51807
#	67452
#	80310
#	93801
#	106951
#	126457
#
# Disc length: 1936 seconds
#
# Revision: 1
# Processed by: cddbd v1.5.1PL2 Copyright (c) Steve Scherf et al.
# Submitted via: audiograbber 1.83.01
#
DISCID=6a078e09
DTITLE=Al´s Fast Freight - Between The Devil And The Deep Blue Sea
DYEAR=1999
DGENRE=Country Rock
TTITLE0=I Need A Word That Rhymes With Idiot
TTITLE1=Life Of The Party
TTITLE2=Who The Hell Knows
TTITLE3=Between The Devil And The Deep Blue Sea
TTITLE4=You Don´t Want Me Around
TTITLE5=Ring In My Pocket
TTITLE6=Heartburn
TTITLE7=Safe In My Arms
TTITLE8=Hollywood Be Thy Name
EXTD=
EXTT0=
EXTT1=
EXTT2=
EXTT3=
EXTT4=
EXTT5=
EXTT6=
EXTT7=
EXTT8=
PLAYORDER=
